# xmcd
# 
# Track frame offsets:
#     150
#     10847
#     38485
#     46875
#     72135
#     94480
#     115810
#     131505
#     171302
#     185485
#     206295
#     219845
#     238400
#     260050
#     275805
#     311860
# 
# Disc length: 4305
# 
# Revision: 11
# Processed by: cddbd v1.5.2PL0 Copyright (c) Steve Scherf et al.
# Submitted via: fre:ac v1.0.31
# 
DISCID=ed10cf10
DTITLE=Stevie Ray Vaughan and Double Trouble - The Real, Deal Greatest Hits Vol. 2
DYEAR=1999
DGENRE=Blues
TTITLE0=Love Struck Baby
TTITLE1=Ain't Gone 'N' Give Up On Love
TTITLE2=Scuttle Buttin'
TTITLE3=Wall Of Denial
TTITLE4=Lenny
TTITLE5=Superstition (Live)
TTITLE6=Empty Arms
TTITLE7=Riviera Paradise
TTITLE8=Look At Little Sister
TTITLE9=Willie The Wimp (Live)
TTITLE10=Pipeline
TTITLE11=Shake For Me (Live)
TTITLE12=Leave My Girl Alone (Live)
TTITLE13=Telephone Song
TTITLE14=Voodoo Chile (Slight Return)
TTITLE15=Life By The Drop
EXTD=YEAR: 1999
EXTT0=
EXTT1=
EXTT2=
EXTT3=
EXTT4=
EXTT5=
EXTT6=
EXTT7=
EXTT8=
EXTT9=
EXTT10=
EXTT11=
EXTT12=
EXTT13=
EXTT14=
EXTT15=
PLAYORDER=
